<mxfile host="app.diagrams.net" agent="Mozilla/5.0 (Windows NT 10.0; Win64; x64) AppleWebKit/537.36 (KHTML, like Gecko) Chrome/131.0.0.0 Safari/537.36" version="24.9.1">
  <diagram name="Página-1" id="-p6zpxklJYt3CS46reNm">
    <mxGraphModel dx="1549" dy="712" grid="1" gridSize="10" guides="1" tooltips="1" connect="1" arrows="1" fold="1" page="1" pageScale="1" pageWidth="827" pageHeight="1169" math="0" shadow="0">
      <root>
        <mxCell id="0" />
        <mxCell id="1" parent="0" />
        <mxCell id="2AebwueBmRxetbE40JdJ-1" value="Início" style="ellipse;whiteSpace=wrap;html=1;" vertex="1" parent="1">
          <mxGeometry x="361" y="60" width="106" height="70" as="geometry" />
        </mxCell>
        <mxCell id="2AebwueBmRxetbE40JdJ-2" value="" style="endArrow=classic;html=1;rounded=0;" edge="1" parent="1">
          <mxGeometry width="50" height="50" relative="1" as="geometry">
            <mxPoint x="413" y="130" as="sourcePoint" />
            <mxPoint x="413" y="180" as="targetPoint" />
          </mxGeometry>
        </mxCell>
        <mxCell id="2AebwueBmRxetbE40JdJ-3" value="Ler capital, juros e período" style="shape=parallelogram;perimeter=parallelogramPerimeter;whiteSpace=wrap;html=1;fixedSize=1;" vertex="1" parent="1">
          <mxGeometry x="326" y="200" width="176" height="40" as="geometry" />
        </mxCell>
        <mxCell id="2AebwueBmRxetbE40JdJ-4" value="" style="endArrow=classic;html=1;rounded=0;" edge="1" parent="1">
          <mxGeometry width="50" height="50" relative="1" as="geometry">
            <mxPoint x="413" y="240" as="sourcePoint" />
            <mxPoint x="413" y="290" as="targetPoint" />
          </mxGeometry>
        </mxCell>
        <mxCell id="2AebwueBmRxetbE40JdJ-5" value="Para cada mês:&lt;div&gt;Montante = capital * (1 + juros/100^mês&lt;/div&gt;" style="rounded=0;whiteSpace=wrap;html=1;" vertex="1" parent="1">
          <mxGeometry x="303" y="310" width="221" height="50" as="geometry" />
        </mxCell>
        <mxCell id="2AebwueBmRxetbE40JdJ-6" value="" style="endArrow=classic;html=1;rounded=0;" edge="1" parent="1">
          <mxGeometry width="50" height="50" relative="1" as="geometry">
            <mxPoint x="413" y="360" as="sourcePoint" />
            <mxPoint x="413" y="410" as="targetPoint" />
          </mxGeometry>
        </mxCell>
        <mxCell id="2AebwueBmRxetbE40JdJ-7" value="Exibir montante por mês" style="shape=parallelogram;perimeter=parallelogramPerimeter;whiteSpace=wrap;html=1;fixedSize=1;" vertex="1" parent="1">
          <mxGeometry x="326" y="440" width="176" height="40" as="geometry" />
        </mxCell>
        <mxCell id="2AebwueBmRxetbE40JdJ-8" value="" style="endArrow=classic;html=1;rounded=0;" edge="1" parent="1">
          <mxGeometry width="50" height="50" relative="1" as="geometry">
            <mxPoint x="414" y="480" as="sourcePoint" />
            <mxPoint x="414" y="530" as="targetPoint" />
          </mxGeometry>
        </mxCell>
        <mxCell id="2AebwueBmRxetbE40JdJ-9" value="Fim" style="ellipse;whiteSpace=wrap;html=1;" vertex="1" parent="1">
          <mxGeometry x="369" y="555" width="90" height="60" as="geometry" />
        </mxCell>
      </root>
    </mxGraphModel>
  </diagram>
</mxfile>
